<svg width="24" height="25" viewBox="0 0 24 25" fill="none" xmlns="http://www.w3.org/2000/svg">
<path d="M22 6.29997C21.2483 6.62606 20.4534 6.84163 19.64 6.93997C20.4982 6.42729 21.1413 5.62075 21.45 4.66997C20.6436 5.15003 19.7608 5.48826 18.84 5.66997C18.2245 5.00254 17.405 4.55826 16.5098 4.40682C15.6147 4.25537 14.6945 4.40532 13.8938 4.83315C13.093 5.26099 12.4569 5.9425 12.0852 6.7708C11.7135 7.59911 11.6273 8.52736 11.84 9.40997C10.2094 9.32749 8.61444 8.90292 7.15865 8.16383C5.70287 7.42474 4.41885 6.38766 3.39 5.11997C3.02914 5.75013 2.83952 6.46379 2.84 7.18997C2.83872 7.86435 3.00422 8.52858 3.32176 9.12353C3.63929 9.71848 4.09902 10.2257 4.66 10.6C4.00798 10.5822 3.36989 10.4073 2.8 10.09V10.14C2.80489 11.0849 3.13599 11.9991 3.73731 12.7279C4.33864 13.4568 5.17326 13.9556 6.1 14.14C5.74326 14.2485 5.37287 14.3058 5 14.31C4.74189 14.307 4.48442 14.2835 4.23 14.24C4.49391 15.0528 5.00462 15.7631 5.69107 16.2721C6.37753 16.7811 7.20558 17.0635 8.06 17.08C6.6172 18.2152 4.83588 18.8348 3 18.84C2.66574 18.8411 2.33174 18.821 2 18.78C3.87443 19.9902 6.05881 20.6327 8.29 20.63C9.82969 20.646 11.3571 20.355 12.7831 19.774C14.2091 19.1931 15.505 18.3338 16.5952 17.2465C17.6854 16.1591 18.548 14.8654 19.1326 13.4409C19.7172 12.0164 20.012 10.4897 20 8.94997C20 8.77996 20 8.59997 20 8.41997C20.7847 7.83478 21.4615 7.11739 22 6.29997Z" fill="black"/>
</svg>
